<svg width="78" height="76" viewBox="0 0 78 76" fill="none" xmlns="http://www.w3.org/2000/svg">
<ellipse cx="39" cy="38" rx="39" ry="38" fill="#FF7E0E"/>
<path d="M41.489 10.141C43.7938 10.3799 46.1119 10.5651 48.2628 11.555C50.1954 12.4444 52.1611 13.2748 54.0272 14.2929C55.131 14.8951 56.155 15.7201 57.0643 16.6052C58.7887 18.2836 60.506 19.9876 61.7401 22.109C61.9311 22.4374 62.1918 22.7247 62.4272 23.0255C63.0509 23.8228 62.9761 24.4996 62.1646 25.0424C60.1555 26.3863 58.1373 27.7162 56.1224 29.0513C55.4682 29.4848 55.0568 29.6059 54.4997 28.703C53.4906 27.0675 52.3805 25.4255 51.017 24.1021C47.7487 20.9299 43.7624 19.4389 39.218 19.3899C36.4117 19.3597 33.7644 19.9297 31.289 21.2012C28.7272 22.517 26.6403 24.4178 24.9337 26.8031C23.5018 28.8042 22.5409 30.9701 22.0545 33.3718C21.2443 37.3724 21.5205 41.2825 23.0825 45.065C24.6144 48.7745 27.2829 51.4159 30.6469 53.4273C32.8996 54.7742 35.3776 55.4601 37.908 55.5939C39.846 55.6963 41.8505 55.3214 43.7647 54.8836C47.1352 54.1129 49.8416 52.1108 52.2158 49.6178C53.8557 47.8959 54.8505 45.7865 55.7722 43.485C55.8053 43.084 55.7622 42.7865 55.7254 42.4913C55.7317 42.4935 55.727 42.5063 55.6541 42.478C55.1457 42.4 54.7104 42.3105 54.2745 42.3073C52.2268 42.2918 50.1789 42.3042 48.1311 42.2987C45.5468 42.2916 45.6161 42.1789 45.6528 44.7052C45.6637 45.4573 45.4559 45.9593 44.6425 46.0165C42.5486 44.468 40.4488 42.9276 38.3628 41.3681C37.0586 40.3931 35.7727 39.3928 34.4834 38.3973C33.8418 37.9019 33.8958 37.4318 34.534 36.9615C36.2735 35.6797 38.0077 34.3903 39.7368 33.0939C41.4368 31.8194 43.1224 30.5249 44.8285 29.2588C45.1035 29.0548 45.452 28.9534 45.7666 28.8045C45.8514 29.1642 45.9982 29.522 46.0095 29.8841C46.0439 30.9787 46.0257 32.075 46.0907 33.2884C46.3146 33.4753 46.4758 33.5445 46.7092 33.635C47.2204 33.6959 47.6593 33.7694 48.0984 33.7698C53.7214 33.7754 59.3445 33.7705 65.0367 33.7571C65.3375 33.7646 65.5691 33.7833 65.8008 33.802C65.8706 34.0795 66.0111 34.3601 65.9993 34.6338C65.8788 37.4248 65.9202 40.2409 65.5457 42.9977C65.1189 46.1394 63.9936 49.1318 62.2507 51.7739C60.8943 53.83 59.4297 55.8784 57.6927 57.5938C54.155 61.0876 49.8934 63.3169 45.0055 64.2805C42.3664 64.8008 39.7163 65.1862 37.0476 64.9056C34.2417 64.6106 31.4581 64.122 28.8066 63.0254C26.1721 61.9359 23.762 60.4614 21.5284 58.7067C19.4167 57.0477 17.601 55.0808 16.3529 52.6376C15.4858 50.9403 14.4547 49.3022 13.8158 47.5192C13.1369 45.6244 12.7446 43.6061 12.3961 41.6111C12.1226 40.046 11.9695 38.4312 12.0051 36.844C12.0751 33.7151 12.5442 30.6011 13.6172 27.6771C14.6291 24.9195 16.0212 22.3242 17.8498 19.9798C19.6415 17.6826 21.7717 15.8396 24.1763 14.2554C27.1578 12.291 30.4239 11.1098 33.8631 10.3639C34.75 10.1715 35.662 10.099 36.7152 10C38.4083 10.066 39.9487 10.1035 41.489 10.141Z" fill="#25641C"/>
</svg>
